<svg width="23" height="24" viewBox="0 0 23 24" fill="none" xmlns="http://www.w3.org/2000/svg">
<path d="M19.55 2.8H17.25V1.65C17.25 1.345 17.1288 1.05249 16.9132 0.836827C16.6975 0.62116 16.405 0.5 16.1 0.5C15.795 0.5 15.5025 0.62116 15.2868 0.836827C15.0712 1.05249 14.95 1.345 14.95 1.65V2.8H8.05V1.65C8.05 1.345 7.92884 1.05249 7.71317 0.836827C7.49751 0.62116 7.205 0.5 6.9 0.5C6.595 0.5 6.30249 0.62116 6.08683 0.836827C5.87116 1.05249 5.75 1.345 5.75 1.65V2.8H3.45C2.535 2.8 1.65748 3.16348 1.01048 3.81048C0.363481 4.45748 0 5.335 0 6.25V20.05C0 20.965 0.363481 21.8425 1.01048 22.4895C1.65748 23.1365 2.535 23.5 3.45 23.5H19.55C20.465 23.5 21.3425 23.1365 21.9895 22.4895C22.6365 21.8425 23 20.965 23 20.05V6.25C23 5.335 22.6365 4.45748 21.9895 3.81048C21.3425 3.16348 20.465 2.8 19.55 2.8ZM20.7 20.05C20.7 20.355 20.5788 20.6475 20.3632 20.8632C20.1475 21.0788 19.855 21.2 19.55 21.2H3.45C3.145 21.2 2.85249 21.0788 2.63683 20.8632C2.42116 20.6475 2.3 20.355 2.3 20.05V12H20.7V20.05ZM20.7 9.7H2.3V6.25C2.3 5.945 2.42116 5.65249 2.63683 5.43683C2.85249 5.22116 3.145 5.1 3.45 5.1H5.75V6.25C5.75 6.555 5.87116 6.84751 6.08683 7.06317C6.30249 7.27884 6.595 7.4 6.9 7.4C7.205 7.4 7.49751 7.27884 7.71317 7.06317C7.92884 6.84751 8.05 6.555 8.05 6.25V5.1H14.95V6.25C14.95 6.555 15.0712 6.84751 15.2868 7.06317C15.5025 7.27884 15.795 7.4 16.1 7.4C16.405 7.4 16.6975 7.27884 16.9132 7.06317C17.1288 6.84751 17.25 6.555 17.25 6.25V5.1H19.55C19.855 5.1 20.1475 5.22116 20.3632 5.43683C20.5788 5.65249 20.7 5.945 20.7 6.25V9.7Z" fill="white"/>
</svg>
