<svg width="30" height="30" viewBox="0 0 30 30" fill="none" xmlns="http://www.w3.org/2000/svg">
<path d="M16 18.75C16.3542 18.75 16.6513 18.63 16.8913 18.39C17.1313 18.15 17.2508 17.8533 17.25 17.5C17.2492 17.1467 17.1292 16.85 16.89 16.61C16.6508 16.37 16.3542 16.25 16 16.25C15.6458 16.25 15.3492 16.37 15.11 16.61C14.8708 16.85 14.7508 17.1467 14.75 17.5C14.7492 17.8533 14.8692 18.1504 15.11 18.3913C15.3508 18.6321 15.6475 18.7517 16 18.75ZM14.75 13.75H17.25V6.25H14.75V13.75ZM3.5 27.5V5C3.5 4.3125 3.745 3.72417 4.235 3.235C4.725 2.74583 5.31333 2.50083 6 2.5H26C26.6875 2.5 27.2763 2.745 27.7663 3.235C28.2563 3.725 28.5008 4.31333 28.5 5V20C28.5 20.6875 28.2554 21.2763 27.7663 21.7663C27.2771 22.2563 26.6883 22.5008 26 22.5H8.5L3.5 27.5ZM7.4375 20H26V5H6V21.4062L7.4375 20Z" fill="#FFFEFE"/>
</svg>
