<svg width="23" height="24" viewBox="0 0 23 24" fill="none" xmlns="http://www.w3.org/2000/svg">
<path d="M5.62222 21.4091H9.71111C9.71111 22.5591 8.79111 23.5 7.66667 23.5C6.54222 23.5 5.62222 22.5591 5.62222 21.4091ZM3.57778 20.3636H11.7556V18.2727H3.57778V20.3636ZM15.3333 10.4318C15.3333 14.4255 12.6142 16.5582 11.4796 17.2273H3.85378C2.71911 16.5582 0 14.4255 0 10.4318C0 6.10364 3.43467 2.59091 7.66667 2.59091C11.8987 2.59091 15.3333 6.10364 15.3333 10.4318ZM13.2889 10.4318C13.2889 7.26409 10.764 4.68182 7.66667 4.68182C4.56933 4.68182 2.04444 7.26409 2.04444 10.4318C2.04444 13.0141 3.56756 14.4986 4.44667 15.1364H10.8867C11.7658 14.4986 13.2889 13.0141 13.2889 10.4318ZM20.3116 8.205L18.9111 8.86364L20.3116 9.52227L20.9556 10.9545L21.5996 9.52227L23 8.86364L21.5996 8.205L20.9556 6.77273L20.3116 8.205ZM17.8889 6.77273L18.8498 4.61909L20.9556 3.63636L18.8498 2.65364L17.8889 0.5L16.928 2.65364L14.8222 3.63636L16.928 4.61909L17.8889 6.77273Z" fill="white"/>
</svg>
