<svg width="23" height="22" viewBox="0 0 23 22" fill="none" xmlns="http://www.w3.org/2000/svg">
<path fill-rule="evenodd" clip-rule="evenodd" d="M17.8934 5.10683C16.9289 4.14167 15.7421 3.42813 14.4373 3.02888C13.1325 2.62963 11.7497 2.55689 10.4102 2.81704C9.07073 3.07719 7.81563 3.66228 6.75515 4.52092C5.69467 5.37955 4.86126 6.48546 4.32811 7.74149L6.21078 6.77749C6.32775 6.71761 6.45536 6.68135 6.58634 6.67079C6.71731 6.66022 6.84909 6.67556 6.97414 6.71592C7.09919 6.75629 7.21506 6.82088 7.31515 6.90603C7.41523 6.99117 7.49757 7.0952 7.55745 7.21216C7.61733 7.32913 7.65359 7.45674 7.66416 7.58772C7.67472 7.71869 7.65938 7.85047 7.61902 7.97552C7.57866 8.10057 7.51406 8.21644 7.42891 8.31653C7.34377 8.41661 7.23975 8.49894 7.12278 8.55883L3.51611 10.4042C3.35194 10.4881 3.17174 10.536 2.98755 10.5448C2.80337 10.5535 2.61944 10.5228 2.44806 10.4548C2.27667 10.3868 2.12178 10.283 1.99372 10.1503C1.86565 10.0176 1.76738 9.85917 1.70545 9.68549L0.392115 6.00416C0.303002 5.75433 0.316785 5.47933 0.430432 5.23965C0.544079 4.99998 0.748281 4.81527 0.998115 4.72616C1.24795 4.63705 1.52295 4.65083 1.76262 4.76448C2.00229 4.87813 2.187 5.08233 2.27611 5.33216L2.69345 6.50549C3.51036 4.81536 4.77224 3.37968 6.34357 2.35265C7.91491 1.32561 9.73633 0.746019 11.6122 0.676114C13.4881 0.60621 15.3476 1.04863 16.9911 1.95587C18.6345 2.86311 19.9997 4.20089 20.9401 5.82554C21.8806 7.45019 22.3607 9.30033 22.3289 11.1773C22.2971 13.0542 21.7546 14.887 20.7597 16.4789C19.7648 18.0708 18.3551 19.3615 16.6819 20.2126C15.0087 21.0637 13.1352 21.4429 11.2628 21.3095C11.1317 21.3001 11.0038 21.265 10.8863 21.2062C10.7688 21.1474 10.664 21.066 10.578 20.9667C10.4042 20.7662 10.3172 20.5048 10.3361 20.2402C10.355 19.9755 10.4783 19.7291 10.6789 19.5554C10.8794 19.3816 11.1408 19.2946 11.4054 19.3135C13.1005 19.4354 14.7923 19.0361 16.254 18.1692C17.7157 17.3023 18.8774 16.0093 19.5834 14.4634C20.2894 12.9176 20.5058 11.1928 20.2038 9.52046C19.9017 7.84809 19.0956 6.30805 17.8934 5.10683ZM12.0001 4.81616C12.2653 4.81616 12.5197 4.92152 12.7072 5.10905C12.8948 5.29659 13.0001 5.55094 13.0001 5.81616V10.8935C13.0001 11.2268 12.8668 11.5482 12.6321 11.7842L9.37345 15.0402C9.28125 15.1357 9.17094 15.2119 9.04896 15.2644C8.92698 15.3169 8.79577 15.3445 8.663 15.3457C8.53022 15.347 8.39853 15.3217 8.27561 15.2715C8.15269 15.2213 8.041 15.1471 7.94706 15.0532C7.85313 14.9594 7.77882 14.8478 7.72848 14.7249C7.67814 14.602 7.65278 14.4703 7.65387 14.3376C7.65496 14.2048 7.68249 14.0736 7.73484 13.9515C7.78719 13.8295 7.86332 13.7191 7.95878 13.6268L10.9988 10.5868V5.81349C10.9988 5.54828 11.1041 5.29392 11.2917 5.10639C11.4792 4.91885 11.7336 4.81349 11.9988 4.81349M4.69345 16.8935C4.88095 16.7062 5.13511 16.601 5.40012 16.601C5.66512 16.601 5.91928 16.7062 6.10678 16.8935C6.46412 17.249 6.84189 17.5655 7.24012 17.8428C7.3478 17.918 7.43962 18.0137 7.51032 18.1244C7.58103 18.2351 7.62925 18.3586 7.65221 18.4879C7.67518 18.6173 7.67245 18.7498 7.64418 18.8781C7.61591 19.0064 7.56265 19.1278 7.48745 19.2355C7.41225 19.3432 7.31657 19.435 7.20588 19.5057C7.09519 19.5764 6.97166 19.6246 6.84234 19.6476C6.71302 19.6706 6.58044 19.6678 6.45217 19.6396C6.32391 19.6113 6.20247 19.558 6.09478 19.4828C5.59542 19.1325 5.12704 18.7399 4.69478 18.3095C4.60165 18.2166 4.52777 18.1063 4.47736 17.9848C4.42694 17.8633 4.40099 17.733 4.40099 17.6015C4.40099 17.47 4.42694 17.3397 4.47736 17.2182C4.52777 17.0967 4.60032 16.9864 4.69345 16.8935Z" fill="white"/>
</svg>
